#!OML:ASF H:\Terrain\Patient Classification 1\Takeo\Monday\TakeoMonday.ASF
:FULLY-SPECIFIED
:DEGREES
812
root 10.0284 17.0474 -0.163828 -8.00628 -30.841 3.04278
lowerback 11.2272 0.604289 0.605986
upperback 6.36462 0.781291 1.62789
thorax 0.32594 0.341564 1.26098
lowerneck -13.0354 7.99492 1.46731
upperneck 4.30101 11.01 -7.15181
head 3.87201 5.09657 -1.6102
rclavicle -2.28602e-014 1.19271e-014
rhumerus -24.0652 26.6456 -86.775
rradius 109.462
rwrist 5.05834
rhand -25.2108 26.5689
rfingers 7.12502
rthumb 1.30802 -3.40685
lclavicle -2.28602e-014 1.19271e-014
lhumerus -32.5281 -13.8998 99.4567
lradius 110.051
lwrist 19.1776
lhand -25.2267 1.66291
lfingers 7.12502
lthumb 1.29261 31.6387
rfemur -2.02 -4.82586 15.6603
rtibia 39.0803
rfoot -25.602 -16.0952
rtoes -14.9072
lfemur -16.7186 13.983 -20.7501
ltibia 44.6748
lfoot -18.3628 16.8546
ltoes 1.96541
813
root 10.026 17.0538 -0.160144 -7.41671 -30.2543 2.41768
lowerback 11.1688 0.742505 0.87098
upperback 6.32487 0.991882 1.67509
thorax 0.316264 0.454123 1.13867
lowerneck -12.7387 7.62784 0.951271
upperneck 3.54041 10.4984 -6.40187
head 3.88277 4.90976 -1.51514
rclavicle 8.70677e-014 -9.54166e-015
rhumerus -22.1456 27.0535 -85.9064
rradius 109.063
rwrist 5.1125
rhand -25.2291 25.6801
rfingers 7.12502
rthumb 1.29031 -4.29573
lclavicle 8.70677e-014 -9.54166e-015
lhumerus -32.5767 -14.2443 99.5425
lradius 110.025
lwrist 19.3804
lhand -25.544 2.03037
lfingers 7.12502
lthumb 0.986165 32.0078
rfemur -2.03497 -5.19269 16.2615
rtibia 38.7645
rfoot -25.3431 -16.5785
rtoes -15.0465
lfemur -17.1072 13.8417 -20.3163
ltibia 44.7491
lfoot -17.834 16.4886
ltoes 0.449642
814
root 10.0267 17.065 -0.150203 -7.22301 -29.2728 2.17502
lowerback 11.2102 0.737754 0.87034
upperback 6.35568 0.987461 1.61116
thorax 0.327118 0.453924 1.07309
lowerneck -12.6448 7.28958 0.42589
upperneck 3.30501 10.067 -5.84197
head 3.6899 4.72297 -1.28142
rclavicle -5.20816e-014 7.15625e-015
rhumerus -20.3923 27.6153 -85.0437
rradius 108.705
rwrist 5.1644
rhand -25.4041 25.0951
rfingers 7.12502
rthumb 1.12127 -4.88168
lclavicle -5.20816e-014 7.15625e-015
lhumerus -32.5607 -14.4592 99.604
lradius 109.992
lwrist 19.7137
lhand -25.8259 2.13666
lfingers 7.12502
lthumb 0.713925 32.1152
rfemur -1.75117 -5.76029 16.4078
rtibia 38.409
rfoot -25.19 -16.9022
rtoes -14.5982
lfemur -17.3187 13.4163 -20.2943
ltibia 44.7645
lfoot -17.0406 16.31
ltoes -2.31773
815
root 10.0325 17.0753 -0.137969 -7.15801 -27.9477 2.03242
lowerback 11.3618 0.626481 0.812838
upperback 6.44019 0.837012 1.53868
thorax 0.33551 0.379005 1.04565
lowerneck -12.7855 6.95208 -0.147684
upperneck 3.30976 9.6616 -5.25011
head 3.63089 4.53877 -1.01535
rclavicle 3.3197e-014 -2.94201e-014
rhumerus -18.3642 28.0323 -83.9557
rradius 108.102
rwrist 5.067
rhand -25.489 25.3328
rfingers 7.12502
rthumb 1.0393 -4.64444
lclavicle 3.3197e-014 -2.94201e-014
lhumerus -32.4924 -14.5687 99.7305
lradius 109.933
lwrist 19.7934
lhand -25.9279 1.72473
lfingers 7.12502
lthumb 0.615416 31.7036
rfemur -1.33014 -6.64254 16.3657
rtibia 38.0426
rfoot -25.1981 -17.203
rtoes -14.3136
lfemur -17.4418 12.5756 -20.4328
ltibia 44.6661
lfoot -16.0892 16.184
ltoes -5.79425
816
root 10.0445 17.0881 -0.128768 -7.01424 -26.5582 1.7663
lowerback 11.5708 0.443069 0.89223
upperback 6.51261 0.605193 1.424
thorax 0.303345 0.267609 0.906371
lowerneck -12.8514 6.687 -0.544948
upperneck 3.26862 9.3186 -4.58504
head 3.55504 4.39453 -0.754401
rclavicle 4.37326e-015 -5.56597e-015
rhumerus -15.9416 28.4643 -83.0143
rradius 107.376
rwrist 5.06518
rhand -25.6524 25.1468
rfingers 7.12502
rthumb 0.881448 -4.83114
lclavicle 4.37326e-015 -5.56597e-015
lhumerus -32.5058 -14.4923 99.5274
lradius 110.043
lwrist 19.7786
lhand -25.8255 1.47299
lfingers 7.12502
lthumb 0.714322 31.4515
rfemur -0.95507 -7.69297 16.4176
rtibia 37.6885
rfoot -25.247 -17.4372
rtoes -13.8742
lfemur -17.5758 11.4518 -20.4439
ltibia 44.4545
lfoot -15.3138 15.9102
ltoes -7.06518
817
root 10.0457 17.1069 -0.123568 -6.82895 -25.4493 1.78735
lowerback 11.5777 0.428297 0.613737
upperback 6.51239 0.560957 1.22828
thorax 0.298433 0.243308 0.864962
lowerneck -12.7098 6.31921 -0.700562
upperneck 3.01318 8.80716 -4.18218
head 3.39542 4.16636 -0.643592
rclavicle -1.2921e-014 -7.95139e-015
rhumerus -13.7224 28.7937 -82.2329
rradius 106.762
rwrist 5.27269
rhand -26.1611 24.5167
rfingers 7.12502
rthumb 0.390177 -5.46265
lclavicle -1.2921e-014 -7.95139e-015
lhumerus -32.5304 -14.5978 99.2239
lradius 110.13
lwrist 19.8439
lhand -26.1465 1.98185
lfingers 7.12502
lthumb 0.404234 31.9612
rfemur -0.806734 -8.34826 16.3253
rtibia 37.3164
rfoot -25.4321 -17.5206
rtoes -12.2099
lfemur -17.8018 10.6323 -20.6684
ltibia 44.1666
lfoot -14.8821 15.6111
ltoes -6.98714
818
root 10.0327 17.1264 -0.122994 -6.42572 -24.6895 1.78587
lowerback 11.4043 0.61389 0.206002
upperback 6.46705 0.769367 1.09782
thorax 0.338393 0.341355 0.93724
lowerneck -12.5754 5.86771 -1.27352
upperneck 2.69695 8.23392 -3.57571
head 3.18817 3.91108 -0.400056
rclavicle 2.31584e-014 -8.74653e-015
rhumerus -11.5311 28.9233 -81.2196
rradius 106.134
rwrist 5.3426
rhand -26.2771 23.8089
rfingers 7.12502
rthumb 0.278084 -6.17066
lclavicle 2.31584e-014 -8.74653e-015
lhumerus -32.4194 -14.8748 99.1296
lradius 110.04
lwrist 19.9329
lhand -26.6754 2.25953
lfingers 7.12502
lthumb -0.106573 32.2392
rfemur -0.887051 -8.56551 16.4266
rtibia 36.901
rfoot -25.4331 -17.6604
rtoes -10.3225
lfemur -18.1976 10.3197 -20.8041
ltibia 43.8746
lfoot -14.2787 15.2533
ltoes -8.34902
819
root 10.0255 17.1429 -0.119816 -5.84504 -23.8271 1.32203
lowerback 11.3326 0.745694 0.315785
upperback 6.36519 0.958774 1.04277
thorax 0.270578 0.442059 0.797903
lowerneck -12.3144 5.52653 -1.69536
upperneck 2.39817 7.78495 -2.96012
head 2.9806 3.72002 -0.174053
rclavicle 6.95746e-016 -2.62396e-014
rhumerus -9.33293 28.7683 -80.1218
rradius 105.432
rwrist 5.74849
rhand -25.7275 22.8305
rfingers 7.12502
rthumb 0.808922 -7.14773
lclavicle 6.95746e-016 -2.62396e-014
lhumerus -32.4184 -15.1214 99.0215
lradius 110.004
lwrist 19.8805
lhand -26.5379 2.06829
lfingers 7.12502
lthumb 0.0262558 32.048
rfemur -0.890126 -8.95711 16.9598
rtibia 36.4249
rfoot -25.2054 -18.094
rtoes -9.73834
lfemur -18.7049 9.70165 -20.4223
ltibia 43.6627
lfoot -13.9591 14.5733
ltoes -6.62979
820
root 10.0246 17.1594 -0.108586 -5.53204 -22.9308 1.07386
lowerback 11.3694 0.877627 0.377175
upperback 6.32008 1.14195 0.894961
thorax 0.205511 0.53925 0.589547
lowerneck -12.5774 5.09606 -1.55146
upperneck 2.6262 7.18927 -2.70439
head 3.10179 3.42957 -0.141992
rclavicle -5.397e-014 9.54166e-015
rhumerus -7.20631 28.3354 -78.9609
rradius 104.67
rwrist 6.5128
rhand -25.0197 22.1771
rfingers 7.12502
rthumb 1.49253 -7.79746
lclavicle -5.397e-014 9.54166e-015
lhumerus -32.4161 -15.3212 98.7697
lradius 110.002
lwrist 19.6325
lhand -25.9554 2.27068
lfingers 7.12502
lthumb 0.588823 32.2496
rfemur -0.668722 -9.44897 17.1799
rtibia 35.911
rfoot -25.0447 -18.4899
rtoes -9.7312
lfemur -19.0291 8.96429 -20.2331
ltibia 43.5492
lfoot -14.0641 13.8216
ltoes -2.15866
821
root 10.0221 17.1775 -0.102696 -5.22344 -21.9936 0.674347
lowerback 11.4706 0.978142 0.485367
upperback 6.37463 1.28678 0.849353
thorax 0.210234 0.61586 0.464698
lowerneck -13.7262 4.52508 -1.11209
upperneck 3.47741 6.42645 -2.88669
head 3.64443 3.01988 -0.285149
rclavicle 1.25234e-014 -6.36111e-015
rhumerus -4.93534 28.024 -77.6758
rradius 103.777
rwrist 6.72607
rhand -24.8049 22.1677
rfingers 7.12502
rthumb 1.7 -7.80526
lclavicle 1.25234e-014 -6.36111e-015
lhumerus -32.2833 -15.2773 98.6873
lradius 109.896
lwrist 19.6267
lhand -25.9803 1.85482
lfingers 7.12502
lthumb 0.56474 31.8338
rfemur -0.434247 -9.88388 17.6123
rtibia 35.4041
rfoot -24.9725 -18.7404
rtoes -9.31869
lfemur -19.2122 8.3672 -19.9498
ltibia 43.4546
lfoot -13.8629 13.2679
ltoes -1.84044
822
root 10.0184 17.1991 -0.109248 -4.63296 -20.8232 0.0824849
lowerback 11.4425 1.02468 0.746952
upperback 6.42835 1.37467 0.797905
thorax 0.288843 0.668547 0.256128
lowerneck -14.6551 3.99689 -0.257665
upperneck 3.92717 5.6605 -3.59925
head 4.04104 2.60043 -0.70785
rclavicle 2.45499e-014 -8.74653e-015
rhumerus -2.49208 27.683 -76.5203
rradius 102.82
rwrist 6.43212
rhand -24.778 21.8613
rfingers 7.12502
rthumb 1.72598 -8.11145
lclavicle 2.45499e-014 -8.74653e-015
lhumerus -32.0335 -15.3188 98.5959
lradius 109.682
lwrist 19.6085
lhand -26.2143 1.07823
lfingers 7.12502
lthumb 0.338734 31.0577
rfemur -0.547942 -10.453 18.3531
rtibia 34.9623
rfoot -25.016 -19.3004
rtoes -9.46924
lfemur -19.6585 7.58356 -19.5305
ltibia 43.2776
lfoot -13.5548 12.8122
ltoes -3.52281
